<svg id="vector" xmlns="http://www.w3.org/2000/svg" width="414" height="203.91" viewBox="0 0 414 203.91" fill="#000000">
    <path d="M318.202,203.91h32.9L351.102,65.942L318.202,51.178Z" id="path_0"/>
    <path d="M293.285,119.317h32.427v84.593h-32.427z" id="path_1"/>
    <path d="M263.866,77.491h30.547v126.419h-30.547z" id="path_2"/>
    <path d="M272.963,43.529h12.582v126.419h-12.582z" id="path_3"/>
    <path d="M278.104,0h2.42v126.419h-2.42z" id="path_4"/>
    <path d="M251.95,111.798h15.979v92.112h-15.979z" id="path_5"/>
    <path d="M238.293,97.699h17.859v106.211h-17.859z" id="path_6"/>
    <path d="M205.264,203.91L241.92,203.91L241.92,23.617l-36.657,19.567Z" id="path_7"/>
    <path d="M170.788,80.781h39.007v123.129h-39.007z" id="path_8"/>
    <path d="M157.5,134.356h17.858v69.554h-17.858z" id="path_9"/>
    <path d="M138.38,99.109h22.558v104.801h-22.558z" id="path_10"/>
    <path d="M92.331,203.91h47.936L140.267,81.721l-23.922,-15.34 -24.014,15.34Z" id="path_11"/>
    <path d="M50.755,117.908h49.816v86.002h-49.816z" id="path_12"/>
    <path d="M23.498,61.513h31.957v142.397h-31.957z" id="path_13"/>
    <path d="M0,105.219h26.788v98.691h-26.788z" id="path_14"/>
    <path d="M343.409,106.967h42.57v96.943h-42.57z" id="path_15"/>
    <path d="M382.746,120.439h31.254v83.471h-31.254z" id="path_16"/>
</svg>